<svg id="Layer_1" data-name="Layer 1" xmlns="http://www.w3.org/2000/svg" width="316.21" height="279.43" viewBox="0 0 316.21 279.43"><defs><style>.cls-1{fill:#ec2027;}</style></defs><title>ErrorIcon</title><path class="cls-1" d="M312,248.05,176.22,12.94c-10-17.25-26.27-17.25-36.23,0L4.25,248.05c-10,17.26-1.81,31.38,18.12,31.38H293.84C313.77,279.43,321.92,265.31,312,248.05ZM145.42,82.76h25.12A6.86,6.86,0,0,1,177.43,90l-4.77,98.38a7.71,7.71,0,0,1-7.61,7.23h-13.9a7.72,7.72,0,0,1-7.61-7.23l-5-98.38A6.84,6.84,0,0,1,145.42,82.76ZM158.1,253.41c-13.45,0-22.42-9.71-22.42-22.67,0-13.2,9.22-22.67,22.42-22.67s21.92,9.47,22.17,22.67C180.27,243.7,171.55,253.41,158.1,253.41Z"/></svg>